<?xml version="1.0" standalone="no"?>
<!DOCTYPE svg PUBLIC "-//W3C//DTD SVG 20010904//EN"
 "http://www.w3.org/TR/2001/REC-SVG-20010904/DTD/svg10.dtd">
<svg version="1.0" xmlns="http://www.w3.org/2000/svg"
 width="1566.000000pt" height="1162.000000pt" viewBox="0 0 1566.000000 1162.000000"
 preserveAspectRatio="xMidYMid meet">

<g transform="translate(0.000000,1162.000000) scale(0.100000,-0.100000)"
fill="#000000" stroke="none">
<path d="M8199 11588 c-8 -8 -41 -34 -74 -58 -33 -24 -76 -58 -96 -75 -43 -37
-204 -167 -279 -227 -199 -158 -480 -336 -720 -457 -128 -64 -182 -94 -222
-122 -14 -11 -29 -19 -32 -19 -15 0 -187 -124 -196 -141 -6 -10 -18 -19 -27
-19 -14 0 18 42 65 83 7 7 21 19 30 27 18 16 167 110 245 154 26 15 47 31 47
35 0 5 -21 26 -47 47 l-47 39 -1004 3 -1004 2 -54 -31 c-89 -50 -123 -107
-135 -223 -11 -96 -24 -161 -50 -237 -10 -31 -19 -63 -19 -72 0 -8 -15 -44
-33 -79 -18 -35 -39 -79 -47 -98 -16 -39 -120 -181 -161 -220 -163 -155 -397
-252 -669 -275 -120 -11 -232 -87 -244 -167 -14 -94 -44 -1104 -38 -1303 1
-22 5 -607 10 -1300 9 -1220 13 -1352 42 -1510 5 -27 17 -113 26 -190 9 -77
24 -178 34 -225 10 -47 30 -139 44 -205 15 -66 35 -154 45 -195 11 -41 29
-118 41 -170 12 -52 28 -107 36 -123 8 -15 24 -56 34 -91 11 -35 45 -128 76
-207 30 -79 64 -169 75 -199 27 -77 85 -211 114 -262 13 -24 36 -74 51 -113
30 -75 113 -232 149 -280 13 -16 35 -55 50 -85 15 -30 36 -64 46 -75 43 -46
69 -81 69 -91 0 -6 32 -48 70 -94 39 -46 86 -113 104 -150 50 -98 76 -137 144
-210 62 -66 89 -100 142 -180 16 -25 69 -84 118 -132 69 -68 101 -92 145 -108
70 -26 160 -120 215 -225 42 -79 107 -148 167 -176 55 -26 128 -68 135 -77 19
-27 116 -83 152 -88 24 -4 54 -13 68 -20 43 -22 116 -34 209 -34 50 0 110 -4
133 -9 122 -27 370 -55 628 -71 96 -6 218 -15 270 -20 172 -17 469 -25 885
-25 428 0 610 6 910 30 99 8 237 19 308 25 123 9 217 22 304 41 23 5 71 9 107
9 36 0 68 5 71 10 8 12 125 14 125 1 0 -7 -102 -24 -225 -36 -27 -3 -72 -9
-100 -15 -129 -26 -170 -31 -305 -40 -250 -16 -305 -25 -363 -60 -60 -35 -335
-170 -348 -170 -5 0 -23 -8 -41 -18 -53 -30 -266 -117 -323 -133 -16 -4 -79
-26 -140 -48 -60 -22 -121 -41 -134 -41 -21 0 -122 30 -161 49 -8 4 -42 15
-75 25 -59 19 -83 27 -127 45 -13 5 -52 21 -88 35 -82 32 -389 174 -455 210
-27 16 -79 45 -115 65 -57 31 -76 37 -155 42 -147 11 -198 18 -355 50 -25 5
-122 13 -216 19 -94 5 -183 14 -198 21 -43 20 -53 0 -27 -53 17 -36 45 -59
166 -143 80 -55 168 -113 195 -130 27 -16 75 -48 106 -70 108 -77 160 -109
309 -195 83 -48 166 -96 185 -108 20 -12 54 -28 76 -36 22 -8 81 -37 131 -65
49 -28 130 -65 179 -82 49 -17 134 -55 189 -84 56 -29 116 -58 135 -64 86 -26
301 -102 360 -127 53 -23 80 -28 145 -28 82 0 128 12 325 84 47 17 110 40 140
50 30 11 114 45 185 76 72 31 151 65 177 75 53 21 335 165 418 214 30 18 89
51 130 74 96 53 178 105 337 213 209 143 226 157 244 213 12 33 31 62 60 88
64 56 80 66 124 71 22 3 92 17 155 31 63 15 147 33 185 42 94 21 245 83 294
122 50 40 83 97 121 209 27 81 30 102 30 217 0 69 -4 135 -10 145 -7 14 -4 30
13 65 21 44 23 45 59 40 20 -3 43 -2 52 1 20 8 88 98 257 343 83 119 129 190
160 247 18 32 64 111 102 174 38 63 89 156 112 205 23 50 69 146 102 215 106
219 202 468 274 710 27 91 61 201 74 245 14 44 34 125 46 180 11 55 31 152 45
215 22 105 53 298 75 475 5 39 13 131 19 205 13 193 13 3880 0 3917 -13 35
-239 256 -295 289 -32 18 -65 26 -151 34 -60 5 -125 14 -144 19 -108 27 -223
67 -280 100 -36 20 -77 42 -92 50 -15 8 -54 41 -87 75 -33 34 -65 66 -71 71
-24 23 -82 101 -96 127 -8 15 -18 28 -23 28 -10 0 -61 93 -61 112 0 6 -7 20
-17 30 -18 20 -12 34 12 25 8 -4 15 -15 15 -25 0 -11 7 -25 15 -32 8 -7 15
-19 15 -27 0 -20 50 -83 65 -83 7 0 18 -12 24 -27 12 -34 61 -93 61 -75 0 7
-7 23 -15 35 -8 12 -21 51 -30 87 -9 36 -23 82 -30 102 -8 20 -17 74 -20 120
-13 176 -36 228 -141 326 -38 35 -90 84 -116 108 -26 24 -66 53 -87 64 -40 20
-55 20 -1150 20 -664 0 -1112 4 -1115 9 -7 11 49 25 63 17 25 -16 38 7 44 77
8 101 -3 151 -46 195 -50 53 -56 69 -55 155 1 54 -4 83 -15 99 -32 46 -146
158 -161 158 -9 0 -19 -12 -23 -27 -7 -27 -8 -26 -13 12 -5 43 -27 56 -51 33z
m-2 -102 c-3 -8 -9 -43 -13 -78 -4 -35 -13 -80 -20 -102 -8 -21 -14 -51 -14
-67 0 -29 -27 -111 -62 -188 -47 -106 -59 -143 -48 -157 9 -10 17 -10 36 -2
13 6 24 14 24 18 0 3 34 57 75 119 41 63 75 115 75 116 0 2 14 17 30 35 17 18
30 30 30 27 0 -6 -21 -101 -51 -227 -18 -78 -38 -144 -59 -195 -4 -11 -20 -56
-35 -100 -16 -44 -34 -87 -41 -96 -17 -19 -18 -55 -3 -64 5 -4 28 5 50 20 23
14 43 24 46 22 13 -14 -75 -169 -187 -332 -8 -12 -42 -48 -75 -81 -134 -132
-306 -248 -390 -263 -105 -20 -232 -77 -213 -96 3 -4 64 3 135 14 199 32 466
27 668 -14 149 -30 343 -86 450 -131 162 -66 288 -130 382 -192 48 -32 95 -63
104 -68 9 -5 38 -28 64 -51 26 -24 51 -43 56 -43 4 0 19 -10 31 -22 13 -13 43
-39 67 -58 131 -105 262 -232 366 -354 28 -33 57 -66 65 -75 26 -28 80 -105
80 -113 0 -15 -38 12 -133 94 -18 15 -38 28 -44 28 -7 0 -51 27 -97 60 -47 33
-89 60 -94 60 -5 0 -15 6 -21 14 -10 12 -149 78 -278 132 -18 8 -48 20 -65 28
-18 7 -60 21 -93 31 -33 9 -78 23 -100 30 -22 8 -67 18 -100 24 -33 5 -100 17
-150 25 -185 31 -308 46 -390 46 -79 0 -135 -13 -135 -31 0 -18 63 -39 157
-54 54 -9 107 -22 118 -29 11 -7 43 -21 70 -31 57 -22 192 -91 216 -111 8 -8
23 -14 32 -14 9 0 26 -9 37 -20 11 -11 45 -33 77 -49 32 -17 76 -44 98 -60 22
-16 60 -42 85 -57 44 -27 91 -66 156 -131 18 -18 36 -33 40 -33 16 0 434 -418
434 -435 0 -4 10 -17 23 -29 12 -12 32 -35 45 -52 12 -16 31 -40 42 -54 51
-63 120 -164 120 -175 0 -7 11 -23 24 -36 26 -27 52 -72 139 -239 90 -174 127
-250 127 -259 0 -5 18 -52 40 -105 22 -53 40 -105 40 -115 0 -11 6 -32 14 -48
25 -48 58 -155 67 -217 5 -33 14 -78 21 -100 6 -23 12 -45 12 -51 4 -29 28
-197 36 -244 6 -29 7 -57 5 -62 -8 -13 -35 1 -35 18 0 20 -85 184 -131 253
-42 63 -174 201 -210 220 -13 7 -32 23 -42 36 -20 25 -182 107 -236 119 -19 4
-53 15 -75 25 -40 17 -41 18 -15 25 39 10 151 -21 254 -70 136 -66 232 -144
271 -219 15 -30 28 -42 46 -44 43 -5 42 31 -2 118 -53 108 -87 154 -186 254
-62 62 -89 85 -204 172 -198 150 -466 246 -646 230 -119 -10 -215 -40 -265
-82 -23 -21 -59 -18 -59 4 0 11 -9 27 -20 37 -24 21 -24 19 -4 -65 8 -36 19
-83 23 -105 5 -22 14 -62 20 -90 20 -92 41 -285 41 -381 0 -154 -42 -501 -74
-603 -7 -25 -19 -66 -26 -91 -6 -25 -20 -67 -30 -95 -10 -27 -22 -61 -25 -75
-4 -14 -21 -54 -37 -90 -17 -36 -37 -81 -45 -100 -37 -89 -43 -100 -53 -100
-12 0 -3 54 16 94 8 16 14 36 14 44 0 14 15 71 41 157 20 69 52 279 65 430 2
22 4 123 4 225 0 173 -5 252 -31 475 -10 89 -62 372 -79 430 -5 17 -13 48 -19
70 -60 228 -187 524 -225 525 -5 0 -3 -7 4 -15 6 -8 18 -33 25 -57 8 -24 28
-81 45 -128 18 -47 35 -98 40 -115 4 -16 19 -71 34 -122 14 -51 26 -104 26
-118 0 -15 5 -35 10 -45 11 -21 21 -66 50 -240 57 -333 50 -825 -15 -1170 -30
-161 -88 -376 -120 -445 -7 -16 -27 -68 -44 -115 -41 -117 -100 -249 -127
-285 -12 -16 -38 -63 -59 -102 -20 -40 -40 -75 -46 -78 -5 -4 -9 -16 -9 -29 0
-12 -9 -32 -20 -44 -11 -11 -41 -74 -66 -138 -40 -102 -45 -121 -36 -150 5
-18 6 -36 2 -41 -15 -16 -42 -159 -38 -203 2 -37 6 -45 23 -45 18 0 49 39 135
170 53 81 165 195 255 260 16 11 34 26 41 32 7 7 15 13 17 13 3 0 35 18 71 40
101 62 191 95 260 95 l58 0 37 -67 c23 -44 49 -77 74 -94 61 -41 41 -47 -127
-39 -203 9 -306 -5 -405 -53 -103 -51 -171 -139 -171 -222 0 -45 21 -36 58 25
44 73 105 120 192 150 69 23 87 25 274 25 207 0 263 7 416 50 86 25 102 35 98
64 -3 19 -10 21 -76 23 -183 6 -282 86 -282 231 0 78 32 219 67 297 32 70 215
382 232 395 9 7 51 68 51 75 0 3 15 26 34 52 52 73 133 240 151 313 10 36 21
103 25 150 7 79 6 87 -16 122 -13 21 -25 38 -27 38 -1 0 -2 -51 -2 -112 0 -97
-4 -126 -28 -200 -16 -47 -44 -112 -63 -143 -19 -32 -34 -59 -34 -61 0 -1 -28
-45 -63 -96 -35 -51 -97 -142 -137 -203 -41 -60 -77 -112 -80 -115 -10 -10
-51 -85 -90 -165 -48 -98 -75 -186 -91 -296 -7 -46 -15 -88 -19 -92 -4 -4 -36
-10 -71 -12 -35 -3 -86 -10 -114 -16 -105 -25 -337 -168 -431 -266 -33 -34
-48 -40 -59 -23 -10 17 74 173 190 355 72 113 78 122 120 200 21 39 44 77 51
85 18 22 181 359 192 400 6 19 25 76 42 125 36 102 73 239 94 347 55 288 42
681 -31 934 -14 51 -23 98 -20 107 7 17 97 61 174 83 65 19 245 21 318 4 171
-41 335 -122 475 -235 88 -72 177 -161 168 -170 -2 -2 -44 16 -93 41 -145 72
-211 89 -345 89 -130 -1 -172 -15 -242 -83 -58 -55 -52 -62 52 -62 166 0 322
-47 489 -145 342 -202 540 -661 502 -1163 -11 -132 -16 -162 -32 -162 -12 0
-21 24 -55 143 -15 54 -31 100 -36 103 -4 3 -8 12 -8 21 0 22 -84 196 -121
251 -16 24 -29 45 -29 48 0 3 -8 16 -17 29 -10 12 -25 33 -33 45 -8 13 -25 35
-37 50 -13 15 -23 33 -23 38 0 17 -219 227 -307 294 -74 57 -170 114 -179 105
-9 -8 22 -57 37 -57 15 0 91 -55 161 -116 64 -56 208 -209 214 -226 3 -10 9
-18 13 -18 8 0 61 -71 61 -82 0 -3 -17 -17 -38 -32 -68 -47 -113 -155 -132
-319 -18 -154 7 -341 70 -524 16 -48 30 -98 30 -110 0 -12 4 -24 9 -27 4 -3
11 -31 14 -63 4 -32 11 -92 18 -133 13 -85 6 -270 -11 -315 -6 -16 -16 -55
-22 -85 -8 -49 -33 -115 -59 -160 -5 -8 -18 -35 -30 -60 -12 -25 -34 -64 -50
-88 -16 -24 -29 -46 -29 -50 0 -12 -164 -252 -172 -252 -5 0 -13 -11 -18 -24
-5 -14 -37 -66 -72 -116 -98 -144 -109 -161 -135 -213 -18 -35 -39 -58 -78
-82 -89 -57 -216 -115 -285 -131 -36 -7 -89 -19 -118 -26 -29 -6 -55 -15 -58
-20 -3 -4 -21 -8 -41 -8 -19 0 -56 -6 -82 -14 -25 -8 -77 -22 -116 -30 -244
-54 -1465 -43 -1465 13 0 6 -79 21 -190 36 -62 9 -219 96 -280 156 -38 37 -86
140 -105 224 -32 138 -34 149 -23 163 6 7 10 41 9 75 -3 112 35 236 93 298 13
14 27 35 30 46 10 31 152 171 248 244 200 152 254 192 268 197 8 3 47 29 85
57 39 29 81 58 95 65 14 7 79 54 145 104 156 118 326 287 397 396 105 160 139
268 158 501 10 130 10 150 -4 177 -52 101 25 65 88 -41 43 -73 61 -163 53
-276 -7 -96 -25 -156 -86 -280 -91 -186 -322 -450 -567 -647 -85 -69 -316
-222 -444 -295 -166 -94 -219 -132 -287 -201 -86 -88 -136 -209 -117 -284 10
-38 24 -28 24 17 0 51 55 170 102 221 42 46 148 124 213 159 91 48 209 115
255 144 25 16 56 35 69 43 32 17 187 131 276 203 184 148 382 376 460 529 61
119 62 122 91 205 15 44 31 85 35 91 5 6 14 57 20 114 14 118 4 193 -34 269
-30 60 -138 168 -192 192 -24 11 -47 24 -50 29 -3 5 -16 10 -28 9 -12 0 -47 5
-77 11 -30 6 -86 8 -125 5 -77 -7 -206 -46 -245 -74 -14 -9 -32 -20 -41 -23
-31 -12 -184 -111 -279 -181 -101 -75 -230 -196 -230 -216 0 -14 -98 -114
-145 -148 -38 -28 -80 -47 -175 -80 -104 -36 -206 -35 -359 4 -75 19 -118 35
-125 47 -12 19 -9 22 99 106 90 70 217 199 262 265 46 68 125 229 154 313 46
133 55 376 19 537 -22 100 -81 258 -135 359 -30 57 -52 106 -48 109 11 12 64
-24 121 -83 92 -97 119 -132 161 -210 13 -25 30 -52 37 -61 8 -8 14 -20 14
-26 0 -5 14 -38 31 -74 17 -35 42 -91 55 -125 26 -71 62 -142 75 -150 5 -3 44
22 86 55 41 34 80 61 85 61 6 0 22 8 36 18 41 27 181 80 241 92 77 14 306 12
371 -4 115 -29 198 -59 280 -104 102 -54 130 -71 151 -91 9 -9 38 -34 64 -56
45 -39 102 -121 137 -198 12 -27 23 -38 35 -35 56 10 -3 220 -139 493 -128
256 -328 508 -540 680 -32 25 -58 50 -58 56 0 24 226 -6 337 -45 121 -42 137
-50 223 -105 89 -57 203 -164 215 -200 7 -23 20 -27 30 -11 6 9 -24 133 -45
185 -4 11 -16 43 -25 70 -27 77 -119 257 -178 349 -89 136 -174 232 -287 326
-30 25 -60 49 -67 55 -17 15 -99 70 -171 116 -64 41 -182 99 -237 116 -46 15
-40 46 10 55 343 63 624 51 830 -38 151 -64 153 -38 8 105 -128 126 -290 239
-478 334 -254 127 -440 198 -605 228 -63 11 -238 11 -245 -1 -7 -11 10 -15
110 -30 184 -28 434 -115 705 -247 191 -93 449 -267 428 -288 -4 -4 -28 -2
-54 4 -271 68 -641 46 -852 -51 -94 -43 -86 -54 80 -107 66 -22 387 -206 418
-240 3 -3 30 -26 60 -51 59 -47 237 -230 255 -260 5 -10 32 -52 60 -92 97
-142 190 -348 157 -348 -4 0 -28 18 -52 40 -25 22 -49 40 -54 40 -5 0 -17 6
-25 14 -29 27 -155 84 -241 109 -130 39 -221 51 -340 43 -169 -10 -209 -30
-127 -65 108 -47 306 -218 457 -397 114 -134 185 -243 287 -441 51 -100 37
-112 -48 -45 -109 84 -254 153 -409 194 -98 26 -299 35 -394 18 -144 -25 -321
-108 -416 -195 -39 -35 -69 -49 -75 -33 -90 258 -150 391 -218 487 -45 63
-170 189 -240 240 -51 37 -110 68 -237 124 -53 23 -181 47 -255 47 -81 0 -193
-22 -302 -59 -94 -32 -82 -35 -194 50 -168 127 -347 150 -641 83 -92 -21 -103
-16 -132 66 -19 52 -52 78 -84 65 -20 -8 -54 4 -46 16 3 6 12 8 20 5 7 -3 26
1 41 8 16 8 50 24 76 37 59 29 89 67 91 117 1 30 6 39 31 51 45 21 71 48 89
94 19 50 64 83 122 93 47 7 45 11 59 -98 3 -27 10 -48 14 -48 9 0 21 82 21
141 0 22 7 42 17 50 22 19 110 37 225 45 130 9 146 20 177 115 27 85 97 229
110 229 6 0 12 9 16 19 3 10 18 24 33 30 15 6 36 28 47 48 11 20 32 44 46 52
15 9 48 29 75 45 27 16 65 45 85 64 45 42 105 62 290 97 174 33 172 32 164 45
-4 6 -57 10 -129 10 -103 0 -142 -5 -237 -29 -63 -16 -139 -39 -169 -51 -100
-40 -271 -129 -361 -190 -132 -88 -149 -82 -68 24 101 134 217 222 353 267 64
21 243 52 256 44 18 -11 70 8 70 25 0 24 -69 43 -150 42 -283 -5 -543 -197
-660 -488 -23 -58 -43 -89 -67 -108 -34 -28 -53 -27 -53 2 0 40 48 162 85 217
23 33 55 80 72 105 42 63 66 140 54 173 -13 33 -59 57 -109 57 -86 0 -186
-115 -220 -252 -26 -102 -10 -313 29 -389 18 -36 18 -37 -1 -54 -13 -12 -21
-37 -26 -86 -4 -38 -12 -73 -18 -78 -6 -4 -37 -17 -69 -28 -64 -22 -127 -74
-127 -105 0 -11 -14 -33 -31 -50 -30 -30 -31 -31 -104 -25 -68 6 -75 5 -85
-13 -14 -27 -9 -33 45 -55 37 -16 45 -24 45 -46 0 -37 -47 -69 -141 -98 -105
-33 -119 -25 -119 67 1 52 7 79 28 122 24 50 30 55 57 53 68 -6 111 -1 127 14
40 36 4 83 -63 83 -21 0 -44 3 -53 6 -17 6 -21 40 -8 61 20 31 117 81 230 118
89 29 61 69 -32 45 -67 -17 -176 -61 -176 -72 0 -4 -6 -8 -14 -8 -7 0 -19 -7
-26 -15 -15 -18 -41 -20 -34 -2 10 26 108 87 165 103 33 9 71 28 85 43 18 17
28 22 31 14 3 -7 10 -13 16 -13 13 0 68 75 104 142 12 22 29 48 36 57 8 9 26
51 40 93 14 42 33 90 41 107 9 16 16 39 16 50 0 10 4 21 8 23 13 5 62 117 62
141 0 11 6 25 14 31 8 6 31 42 51 80 49 93 102 144 178 172 9 3 17 10 17 15 0
5 4 9 9 9 5 0 49 18 98 41 136 63 176 83 203 100 14 9 51 24 83 34 31 10 57
21 57 26 0 4 10 11 23 15 22 7 118 50 227 102 97 47 173 94 209 131 20 20 64
61 97 91 70 63 137 146 129 160 -7 12 -49 -9 -89 -44 -16 -14 -33 -26 -38 -26
-5 0 -34 -18 -64 -41 -31 -22 -57 -39 -59 -37 -6 6 22 84 47 132 23 44 26 50
69 136 15 30 37 64 48 74 12 11 21 24 21 30 0 23 231 246 255 246 7 0 18 6 24
14 7 8 25 17 40 21 15 3 40 16 55 28 28 23 131 82 251 142 39 19 79 41 90 48
11 7 63 36 115 66 52 29 97 58 98 62 2 5 12 9 22 9 10 0 27 10 37 23 10 13 37
34 61 47 23 13 42 27 42 32 0 4 6 8 13 8 8 0 24 11 37 25 13 14 32 25 42 25
10 0 18 6 18 14 0 8 6 16 14 19 24 9 176 129 176 138 0 5 7 9 15 9 8 0 32 15
53 34 188 172 245 215 229 172z m168 -151 c0 -12 -8 -21 -20 -23 -21 -4 -75
-56 -75 -72 0 -5 -9 -14 -20 -20 -29 -15 -41 17 -14 36 42 28 74 59 74 69 0
17 23 36 40 33 8 -2 15 -12 15 -23z m-5 -221 c0 -8 -4 -12 -10 -9 -5 3 -10 10
-10 16 0 5 5 9 10 9 6 0 10 -7 10 -16z m-70 -405 c0 -11 -4 -17 -10 -14 -5 3
-10 15 -10 26 0 11 5 17 10 14 6 -3 10 -15 10 -26z m-1776 -290 c-24 -27 -30
-16 -7 14 10 14 20 21 22 15 1 -5 -5 -18 -15 -29z m-200 23 c2 -4 -9 -30 -27
-57 -17 -28 -50 -88 -73 -135 -23 -47 -51 -91 -63 -97 -17 -11 -20 -22 -19
-70 2 -72 -22 -123 -56 -123 -12 0 -26 3 -30 8 -8 8 -12 8 -96 11 -48 2 -52 4
-30 12 14 6 43 10 65 9 58 -3 62 -2 69 15 13 35 -4 45 -80 45 -43 0 -74 4 -74
10 0 6 31 10 74 10 80 0 92 7 82 46 -6 24 -7 24 -132 24 l-125 0 3 -117 3
-118 70 -3 c39 -2 73 -6 78 -11 4 -4 -34 -27 -85 -50 -51 -24 -115 -54 -143
-67 -38 -18 -71 -24 -140 -26 -86 -3 -92 -5 -125 -36 -19 -17 -41 -47 -50 -64
-15 -32 -80 -78 -111 -78 -12 0 -15 7 -12 23 10 50 -80 99 -116 65 -8 -8 -15
-9 -17 -3 -15 37 -23 40 -51 25 -63 -35 -117 -217 -78 -260 10 -11 28 -20 40
-20 32 0 36 -9 19 -41 -19 -37 -37 -37 -64 1 -12 17 -29 30 -38 30 -15 0 -62
-37 -62 -50 0 -4 18 -26 40 -51 43 -48 49 -72 24 -107 -27 -38 -69 -30 -119
26 l-43 47 -29 -17 c-15 -9 -29 -25 -31 -35 -3 -21 98 -133 120 -133 8 0 22
-6 32 -13 16 -12 15 -17 -13 -79 -17 -36 -31 -76 -31 -87 0 -35 -43 -52 -167
-68 -65 -8 -130 -19 -146 -25 -15 -6 -46 -32 -68 -59 -31 -37 -39 -54 -33 -71
3 -12 7 -74 7 -137 0 -111 -2 -119 -32 -176 -17 -33 -35 -82 -40 -110 -8 -47
-32 -109 -87 -219 -13 -28 -24 -55 -24 -62 0 -7 -10 -16 -22 -19 -13 -4 -36
-12 -53 -20 -16 -7 -50 -21 -75 -31 -59 -23 -75 -38 -65 -61 4 -10 8 -35 10
-55 4 -48 9 -55 44 -63 44 -10 51 -23 37 -77 -14 -55 -22 -65 -56 -70 -21 -2
-25 -8 -22 -33 5 -51 9 -55 56 -55 37 0 46 -4 61 -27 21 -33 82 -91 152 -148
28 -22 65 -60 83 -85 19 -25 81 -92 140 -150 78 -77 121 -111 161 -129 73 -31
66 -27 155 -104 89 -78 166 -121 284 -161 77 -27 91 -28 199 -24 114 5 115 5
92 -13 -33 -27 -226 -28 -285 -1 -23 11 -72 31 -109 46 -38 14 -74 31 -80 36
-7 6 -42 33 -79 60 -37 28 -78 64 -90 80 -12 17 -31 30 -43 30 -34 0 -140 69
-218 142 -39 37 -75 68 -78 68 -11 0 -31 -58 -24 -70 3 -6 8 -302 10 -658 2
-430 7 -670 15 -717 6 -38 18 -122 26 -185 14 -115 30 -205 59 -335 8 -38 17
-88 19 -110 2 -22 14 -67 26 -100 12 -32 32 -98 45 -145 26 -99 55 -183 100
-295 18 -44 38 -98 45 -120 12 -39 32 -86 50 -115 5 -8 27 -53 48 -100 22 -47
52 -112 67 -144 16 -33 52 -99 82 -147 29 -48 53 -90 53 -93 0 -17 253 -392
307 -454 15 -18 44 -53 63 -78 49 -66 111 -136 197 -227 41 -43 73 -83 71 -89
-2 -6 -13 -16 -23 -22 -10 -6 -39 -23 -64 -39 -63 -38 -108 -36 -150 7 -26 27
-31 38 -25 60 5 22 1 33 -21 56 -16 16 -32 27 -37 24 -8 -5 -58 -106 -58 -118
0 -3 -12 -24 -26 -46 -31 -46 -28 -62 26 -120 22 -24 40 -46 40 -50 0 -3 -18
-25 -40 -49 -22 -23 -60 -73 -86 -112 -26 -38 -54 -69 -63 -69 -14 0 -173 187
-267 314 -44 59 -259 378 -267 396 -4 8 -11 22 -17 30 -9 15 -123 210 -141
243 -21 39 -119 236 -119 241 0 2 -22 51 -49 108 -55 115 -87 192 -121 288
-12 36 -28 79 -35 95 -20 46 -81 230 -109 330 -14 50 -32 110 -40 135 -20 64
-40 155 -101 455 -13 63 -30 182 -56 390 -29 240 -34 520 -34 2117 0 894 3
1629 7 1633 7 7 119 39 193 55 52 11 225 83 275 115 22 14 42 25 45 25 11 0
151 100 216 156 39 32 103 98 144 146 73 85 205 289 220 338 4 14 14 41 22 60
9 19 21 49 28 65 7 17 21 59 30 95 17 68 35 136 41 158 3 9 135 12 618 12 338
0 617 -4 620 -8z m4157 -112 c14 -63 35 -135 47 -160 11 -25 24 -58 27 -73 4
-15 11 -30 16 -33 5 -3 9 -13 9 -22 0 -24 116 -202 192 -295 89 -109 246 -244
373 -321 60 -36 112 -66 116 -66 5 0 38 -13 73 -30 77 -35 131 -52 246 -77
l85 -19 0 -1670 c-1 -918 -4 -1739 -8 -1824 -14 -292 -73 -707 -143 -1000 -39
-164 -151 -522 -199 -635 -7 -16 -21 -55 -30 -85 -18 -56 -40 -105 -113 -260
-22 -47 -59 -125 -82 -175 -41 -88 -220 -415 -258 -471 -4 -6 -39 -58 -78
-115 -39 -57 -89 -131 -111 -164 -54 -81 -71 -95 -88 -72 -6 9 -43 39 -81 66
-38 28 -74 54 -80 59 -6 6 -24 17 -40 26 -16 8 -49 34 -74 56 -120 109 -126
113 -163 99 -32 -11 -38 -10 -83 18 -27 16 -50 37 -52 45 -3 13 91 141 136
187 8 8 38 48 68 90 30 42 67 94 83 116 46 64 117 176 144 227 14 26 34 59 45
75 11 15 31 51 46 78 14 28 30 57 36 65 28 45 171 358 205 450 45 121 59 156
65 165 4 6 19 55 34 110 15 55 34 114 41 130 15 36 51 170 64 240 5 28 17 86
26 130 26 127 35 182 50 310 8 66 19 145 25 175 6 35 10 586 10 1542 1 1643 6
1518 -63 1571 -30 23 -50 28 -148 37 -162 15 -266 54 -399 148 -80 57 -104 81
-161 157 -91 122 -144 258 -154 395 -9 113 -21 147 -67 192 l-40 38 -512 0
c-484 0 -515 1 -537 19 -13 10 -42 26 -64 35 -69 31 -185 87 -185 91 0 2 11
15 25 29 34 34 33 78 -2 107 -16 12 -23 23 -18 26 43 16 44 40 1 68 -36 24
-179 25 -223 2 -43 -23 -54 -69 -22 -103 12 -13 28 -24 36 -24 7 0 13 -4 13
-10 0 -19 -76 -10 -203 25 -70 19 -134 35 -142 35 -20 0 -1 45 37 85 15 17 28
35 28 39 0 4 13 26 29 49 16 23 46 81 67 129 l39 88 1030 -3 1029 -2 27 -115z
m-4101 -144 c0 -3 -4 -8 -10 -11 -5 -3 -10 -1 -10 4 0 6 5 11 10 11 6 0 10 -2
10 -4z m2278 -103 c18 -4 20 -8 10 -14 -17 -11 -65 -11 -72 0 -12 19 18 26 62
14z m2 -98 c1 -17 -45 -17 -81 -1 l-34 15 58 -2 c31 -1 57 -6 57 -12z m-580
-71 c109 -10 190 -23 215 -34 22 -9 63 -23 90 -30 167 -42 558 -209 614 -261
11 -11 25 -19 31 -19 12 0 93 -52 98 -62 2 -5 8 -8 14 -8 13 0 202 -145 298
-229 158 -138 460 -466 460 -499 0 -6 11 -23 25 -38 14 -15 25 -32 25 -39 0
-7 7 -19 16 -26 19 -16 84 -153 84 -178 0 -9 5 -22 11 -28 14 -14 2 -56 -14
-50 -7 2 -14 12 -15 23 -7 36 -81 180 -137 264 -30 47 -61 93 -68 104 -6 10
-19 26 -28 35 -8 9 -22 27 -31 41 -19 30 -103 125 -218 243 -92 96 -351 309
-427 354 -27 15 -50 30 -53 33 -5 6 -61 39 -170 98 -25 13 -49 27 -55 31 -5 4
-46 23 -90 41 -44 19 -89 39 -100 46 -11 7 -72 29 -135 49 -63 20 -124 41
-135 45 -11 5 -33 11 -50 13 -16 3 -86 16 -154 31 -68 14 -176 29 -240 32
-120 7 -166 18 -140 35 8 5 34 7 59 4 25 -2 124 -12 220 -21z m-1840 -63 c0
-5 -21 -22 -47 -39 -47 -29 -298 -155 -398 -199 -27 -12 -61 -29 -75 -37 -14
-8 -104 -52 -200 -99 -99 -49 -192 -101 -214 -122 -21 -19 -41 -34 -43 -32
-12 12 38 67 91 101 49 32 438 226 452 226 6 0 284 137 354 175 69 37 80 41
80 26z m-1110 -275 c0 -15 -18 -31 -26 -23 -7 7 7 37 17 37 5 0 9 -6 9 -14z
m88 -28 c-6 -18 -15 -39 -21 -45 -16 -21 -29 -15 -21 10 16 53 24 67 38 67 12
0 13 -6 4 -32z m4612 -210 c13 -51 39 -127 58 -168 19 -41 38 -84 43 -95 18
-38 91 -143 129 -185 17 -19 39 -44 48 -55 31 -36 156 -141 205 -171 80 -48
105 -59 242 -113 11 -5 56 -17 100 -27 l80 -20 0 -1255 c0 -1332 1 -1296 -44
-1287 -14 3 -16 32 -18 233 -2 349 -33 564 -129 885 -14 47 -29 99 -34 115
-10 38 -90 243 -119 310 -58 128 -187 374 -237 452 -19 28 -34 55 -34 60 -1 4
-14 24 -30 43 -17 19 -30 40 -30 46 0 14 -105 124 -117 124 -5 0 -19 17 -33
37 -14 20 -41 54 -61 74 -63 65 -100 117 -89 124 16 10 85 -52 141 -127 28
-38 63 -74 78 -80 14 -6 34 -14 43 -19 27 -14 42 -11 101 15 61 27 87 67 95
146 6 62 -47 190 -163 392 -25 44 -121 177 -193 267 -72 91 -172 194 -281 291
-39 35 -71 67 -71 71 0 5 67 9 148 9 l148 0 24 -92z m-1140 -217 c0 -5 8 -11
18 -15 9 -3 24 -10 32 -15 8 -5 62 -35 120 -66 58 -32 107 -61 110 -65 3 -4
55 -39 115 -79 114 -76 167 -120 370 -308 120 -112 215 -209 288 -294 84 -96
100 -117 150 -184 29 -38 55 -71 60 -73 4 -2 7 -9 7 -15 0 -6 11 -22 24 -36
13 -15 41 -59 62 -99 54 -102 59 -110 77 -130 10 -10 17 -23 17 -29 0 -6 23
-60 51 -119 76 -165 91 -197 99 -219 4 -11 17 -44 29 -74 12 -29 21 -59 21
-65 0 -6 9 -28 20 -49 11 -20 20 -47 20 -60 0 -13 4 -27 9 -32 14 -16 44 -153
36 -166 -4 -6 -3 -14 3 -18 17 -10 53 -160 50 -205 l-3 -41 -13 60 c-17 77
-35 140 -66 241 -14 45 -26 91 -26 102 0 11 -7 33 -15 49 -16 32 -74 174 -101
248 -23 65 -198 411 -218 434 -9 10 -16 21 -16 26 0 4 -11 23 -25 41 -14 18
-25 37 -25 43 0 5 -6 14 -13 18 -7 4 -24 26 -37 48 -25 42 -161 226 -189 255
-9 9 -41 45 -71 81 -69 80 -253 263 -350 350 -192 170 -328 265 -562 395 -60
32 -108 62 -108 66 0 5 11 8 25 8 14 0 25 -4 25 -9z m-4470 -1313 c0 -16 -5
-19 -22 -14 -13 3 -26 6 -30 6 -16 0 -7 17 15 27 27 13 37 8 37 -19z m1057
-219 c43 -6 103 -22 133 -37 68 -32 150 -90 150 -106 0 -11 -49 -42 -229 -144
-211 -118 -350 -182 -395 -182 -73 0 -168 42 -248 109 -86 73 -101 95 -101
155 0 43 6 62 30 97 66 96 100 115 149 83 27 -18 43 -17 224 15 125 23 183 25
287 10z m521 -161 c10 -13 8 -120 -3 -138 -10 -16 -45 -11 -52 8 -4 9 -25 33
-47 54 -47 41 -43 54 22 74 50 16 68 16 80 2z m-196 -118 c18 -37 24 -95 10
-104 -14 -8 -152 68 -152 84 0 20 69 60 100 57 17 -1 30 -13 42 -37z m-202
-86 c6 -14 10 -43 10 -65 0 -31 -4 -39 -17 -38 -27 0 -118 53 -118 67 0 15 73
61 98 62 10 0 22 -11 27 -26z m-207 -91 c3 -10 8 -40 12 -68 5 -45 16 -73 60
-167 15 -31 11 -38 -21 -38 -24 0 -182 69 -206 89 -7 7 -32 25 -55 42 -70 50
-61 63 87 118 30 12 62 26 70 31 23 15 48 12 53 -7z m802 -47 c19 -18 35 -38
35 -43 0 -6 7 -13 15 -17 8 -3 15 -11 15 -19 0 -7 14 -26 30 -42 17 -16 30
-36 30 -45 0 -9 13 -36 29 -61 16 -24 33 -62 36 -84 4 -22 14 -47 21 -56 19
-21 30 -79 15 -79 -6 0 -14 8 -17 18 -3 9 -12 29 -20 44 -8 14 -14 34 -14 45
0 10 -16 43 -35 73 -19 30 -35 59 -35 65 0 5 -16 32 -35 59 -19 27 -35 55 -35
62 0 16 -63 84 -78 84 -7 0 -12 7 -12 15 0 24 18 18 55 -19z m-65 -6 c0 -10
-29 -28 -75 -46 -16 -6 -39 -15 -49 -19 -17 -7 -16 -5 4 23 18 25 31 32 57 32
18 0 33 5 33 10 0 6 7 10 15 10 8 0 15 -4 15 -10z m-650 -45 c0 -8 -2 -15 -4
-15 -2 0 -6 7 -10 15 -3 8 -1 15 4 15 6 0 10 -7 10 -15z m44 -58 c15 -19 26
-38 26 -43 0 -6 16 -27 35 -48 36 -40 43 -60 24 -72 -15 -9 -60 37 -83 83 -10
21 -25 50 -32 65 -29 56 -9 66 30 15z m437 3 c-32 -27 -171 -30 -171 -4 0 14
9 16 58 12 31 -3 68 -2 82 2 46 14 57 11 31 -10z m4738 -397 c1 -22 -16 -14
-22 9 -8 28 4 47 14 22 4 -10 8 -25 8 -31z m-4259 13 c0 -3 -4 -8 -10 -11 -5
-3 -10 -1 -10 4 0 6 5 11 10 11 6 0 10 -2 10 -4z m133 -178 c44 -15 52 -44 10
-34 -16 3 -43 9 -60 12 -31 6 -42 22 -26 38 4 4 14 5 23 2 8 -3 32 -11 53 -18z
m-135 -184 c36 -30 78 -58 93 -61 30 -6 39 -30 15 -39 -14 -5 -116 52 -116 65
0 7 -41 38 -89 67 -6 5 10 24 21 24 6 0 40 -25 76 -56z m51 -150 c35 -29 38
-45 15 -65 -14 -12 -20 -9 -40 16 -24 30 -33 75 -15 75 5 0 23 -12 40 -26z
m-465 -43 c40 -44 134 -67 321 -80 130 -9 106 -26 -35 -25 -137 1 -189 11
-264 49 -62 31 -81 49 -71 65 10 16 30 12 49 -9z m2003 1 c41 -23 88 -112 58
-112 -8 0 -17 5 -20 10 -3 6 -21 10 -39 10 -39 0 -56 15 -56 51 0 19 -6 30
-21 34 -34 11 -111 -5 -151 -31 -21 -13 -44 -24 -53 -24 -20 0 -19 -16 1 -24
9 -3 63 -6 120 -6 l105 0 -3 -189 c-3 -177 -4 -190 -25 -212 -12 -13 -41 -46
-65 -74 -64 -74 -135 -140 -210 -197 -38 -28 -68 -54 -68 -58 0 -4 -13 -13
-29 -20 -16 -6 -39 -22 -52 -36 -12 -13 -27 -24 -33 -24 -6 0 -30 -15 -53 -33
-23 -17 -89 -63 -147 -100 -58 -38 -106 -73 -106 -78 0 -5 -5 -9 -10 -9 -13 0
-115 -74 -146 -104 -11 -12 -49 -43 -84 -71 -91 -71 -157 -138 -241 -245 -44
-56 -104 -157 -114 -190 -3 -14 -17 -47 -30 -75 -39 -84 -51 -205 -36 -369 12
-134 22 -175 65 -256 7 -14 16 -37 19 -51 4 -14 17 -42 31 -61 l24 -36 -34
-30 c-32 -28 -34 -35 -34 -90 0 -57 -2 -62 -43 -104 -46 -47 -113 -92 -193
-133 -55 -28 -89 -32 -101 -11 -4 8 -56 65 -115 127 -59 63 -119 130 -135 150
-15 19 -36 43 -45 53 -10 10 -18 21 -18 25 0 5 -10 19 -22 33 -57 61 -203 262
-253 348 -6 10 -16 24 -22 31 -24 29 -138 240 -210 389 -41 85 -79 163 -85
174 -25 47 -159 433 -198 571 -25 88 -73 322 -95 455 -36 228 -56 482 -37 494
6 3 194 7 419 7 l408 1 7 -34 c13 -64 77 -174 156 -268 110 -131 148 -170 167
-170 9 0 33 -9 55 -20 22 -11 54 -20 72 -20 18 0 54 -11 80 -25 181 -96 409
-99 618 -6 111 49 175 97 285 215 50 53 103 106 120 116 16 10 57 44 90 74 93
85 171 145 199 152 13 3 27 12 30 19 5 14 74 55 111 66 33 10 168 3 192 -9z
m197 -224 c-3 -25 -12 -55 -20 -65 -14 -16 -14 -14 -9 27 3 25 9 68 12 95 6
48 6 49 15 20 4 -16 6 -51 2 -77z m-2102 71 c36 -19 156 -49 198 -49 52 0 51
-15 -2 -66 -56 -53 -88 -74 -113 -74 -33 0 -135 138 -135 183 0 19 22 22 52 6z
m4168 -130 c0 -6 -4 -7 -10 -4 -5 3 -10 11 -10 16 0 6 5 7 10 4 6 -3 10 -11
10 -16z m-170 -67 c0 -13 -4 -20 -10 -17 -5 3 -10 21 -10 38 0 24 3 28 10 17
5 -8 10 -25 10 -38z m228 -87 c-3 -3 -9 2 -12 12 -6 14 -5 15 5 6 7 -7 10 -15
7 -18z m-203 -62 c4 -19 3 -33 -3 -33 -11 0 -22 34 -22 70 1 32 14 10 25 -37z
m42 -99 c28 -48 29 -64 4 -64 -14 0 -23 13 -35 49 -19 60 -20 64 -3 59 6 -3
22 -22 34 -44z m-2099 24 c-2 -6 -10 -14 -16 -16 -7 -2 -10 2 -6 12 7 18 28
22 22 4z m-38 -57 c0 -5 -7 -11 -15 -15 -15 -5 -20 5 -8 17 9 10 23 9 23 -2z
m-40 -38 c0 -10 -32 -43 -42 -43 -5 0 -1 11 9 25 17 23 33 32 33 18z m2233
-90 c14 -43 28 -94 32 -113 3 -19 10 -57 16 -85 11 -57 12 -85 5 -93 -12 -12
-19 10 -23 80 -3 41 -10 80 -18 88 -7 8 -17 29 -21 45 -4 17 -10 35 -14 40
-13 17 -31 95 -25 105 14 22 24 6 48 -67z m-2283 32 c0 -14 -158 -157 -245
-221 -55 -41 -106 -79 -112 -84 -7 -6 -68 -48 -135 -93 -206 -140 -262 -178
-293 -203 -16 -13 -57 -45 -90 -72 -33 -26 -70 -56 -81 -67 -12 -11 -47 -44
-78 -74 -31 -29 -56 -57 -56 -61 0 -4 -9 -10 -20 -13 -17 -4 -18 -3 -7 12 27
40 146 161 156 161 6 0 11 4 11 9 0 5 48 47 107 93 114 88 139 106 370 263 82
55 170 117 198 138 27 21 73 56 101 77 28 21 75 61 105 89 49 46 69 59 69 46z
m2535 -335 c3 -5 1 -10 -4 -10 -6 0 -11 5 -11 10 0 6 2 10 4 10 3 0 8 -4 11
-10z m-180 -92 c-1 -16 -3 -43 -4 -60 -3 -32 -3 -32 -11 -8 -10 32 -12 115 -3
124 10 10 20 -23 18 -56z m245 43 c0 -18 -44 -41 -77 -41 -44 0 -42 14 5 33
43 18 72 21 72 8z m-790 -1283 c0 -199 11 -450 19 -467 6 -11 11 -27 11 -36 0
-25 101 -173 157 -230 36 -37 81 -66 169 -109 170 -84 174 -86 195 -86 25 0
141 -62 209 -112 72 -53 122 -108 170 -188 69 -115 84 -169 84 -300 -1 -114
-23 -230 -45 -230 -5 0 -9 56 -9 128 0 101 -4 134 -18 162 -24 50 -48 48 -106
-6 -28 -25 -66 -52 -85 -61 -71 -30 -259 4 -354 64 -94 60 -200 196 -183 238
16 44 153 58 289 30 79 -16 222 -73 269 -107 17 -11 47 -21 67 -22 31 -1 36 2
39 23 4 24 -12 65 -35 88 -6 7 -20 28 -32 46 -23 37 -97 94 -161 123 -8 4 -24
14 -35 24 -11 9 -41 21 -66 27 -25 7 -79 27 -120 46 -41 19 -85 38 -99 42 -14
4 -85 36 -157 72 -214 104 -375 250 -471 428 -28 50 -51 130 -43 143 3 5 42
29 86 53 144 77 166 97 205 177 19 39 38 72 42 72 5 0 8 -15 8 -32z m-3044
-444 c-30 -61 -114 -148 -196 -204 -57 -38 -113 -66 -385 -191 -154 -71 -256
-131 -340 -198 -57 -46 -149 -135 -167 -163 -9 -13 -19 -20 -23 -16 -10 10 46
82 124 157 62 59 153 128 211 159 100 54 223 114 267 131 45 18 173 80 293
143 19 10 50 33 68 50 43 42 122 147 122 162 0 6 7 22 16 35 15 21 18 22 27 6
7 -13 2 -32 -17 -71z m229 45 c55 -11 110 -23 122 -25 57 -11 66 -72 37 -244
-38 -222 -167 -417 -362 -547 -102 -68 -133 -83 -315 -157 -149 -61 -223 -96
-272 -130 -58 -40 -118 -111 -149 -176 -28 -59 -31 -74 -31 -163 0 -86 -2 -97
-17 -97 -10 0 -18 -4 -18 -10 0 -5 11 -10 24 -10 30 0 44 -19 25 -31 -17 -11
-50 -4 -164 34 -95 32 -171 78 -219 134 -27 32 -29 42 -34 133 -6 130 29 280
78 335 9 11 20 32 24 47 8 37 183 213 233 236 21 9 50 28 63 41 29 27 334 181
359 181 10 0 45 18 77 40 33 22 62 40 66 40 26 0 238 173 238 194 0 3 10 23
23 44 22 35 32 57 56 125 13 33 24 34 156 6z m2100 -41 c136 -106 390 -444
444 -588 7 -19 17 -44 22 -55 35 -78 50 -257 28 -339 -49 -189 -102 -295 -189
-374 -133 -122 -276 -191 -539 -262 -80 -21 -210 -23 -366 -6 -82 10 -152 19
-155 21 -3 2 -61 15 -130 29 -305 63 -572 178 -721 311 -70 62 -200 229 -243
312 -20 39 -46 114 -46 133 0 8 -11 39 -25 69 -14 30 -23 62 -19 73 3 10 36
38 72 63 63 41 162 127 162 141 0 3 8 18 19 32 10 15 29 56 42 92 20 56 24 83
23 192 0 120 1 127 20 130 12 2 95 -2 186 -10 174 -14 764 -10 885 7 33 4 119
14 190 20 72 7 150 16 175 21 87 15 135 12 165 -12z m931 -99 c82 -96 177
-165 344 -249 58 -30 130 -70 160 -89 77 -50 210 -150 210 -159 1 -4 28 -36
61 -72 72 -77 88 -105 110 -185 9 -33 22 -74 29 -91 7 -17 10 -39 6 -49 -6
-17 -9 -16 -24 11 -10 16 -24 49 -32 74 -32 102 -96 205 -185 293 -37 37 -71
67 -75 67 -5 0 -23 12 -41 28 -43 36 -79 57 -243 142 -137 70 -189 102 -277
170 -70 53 -139 153 -139 199 0 15 24 -7 96 -90z m-4318 -292 c3 -12 -4 -17
-23 -17 -23 0 -25 2 -15 21 13 23 33 21 38 -4z m1386 -388 c-1 -38 -33 -211
-40 -218 -12 -12 -28 24 -32 73 -7 91 27 195 62 183 6 -2 10 -19 10 -38z"/>
<path d="M7479 10711 c-37 -14 -73 -31 -80 -37 -8 -7 -25 -15 -39 -19 -79 -24
-366 -268 -464 -393 -100 -129 -137 -179 -156 -212 -11 -19 -32 -53 -45 -75
-40 -65 -112 -216 -134 -280 -24 -72 -12 -98 23 -50 40 56 154 158 248 223 18
12 56 38 83 57 28 19 56 38 64 42 16 7 44 -25 37 -44 -7 -18 20 -164 39 -209
30 -72 101 -128 131 -103 11 9 11 15 0 38 -31 59 34 253 133 396 69 101 169
200 299 296 51 39 67 69 37 69 -19 0 -79 -30 -150 -76 -75 -48 -86 -46 -79 14
7 54 29 112 102 272 16 36 37 72 46 79 23 20 20 41 -6 40 -13 -1 -53 -13 -89
-28z m-29 -116 c0 -8 -13 -38 -28 -67 -56 -103 -79 -213 -59 -279 7 -22 1 -34
-38 -80 -26 -30 -60 -73 -76 -96 -36 -52 -105 -188 -113 -225 -7 -30 -27 -36
-45 -14 -6 7 -12 54 -14 105 -4 111 -17 133 -63 107 -67 -38 -101 -60 -155
-101 -31 -25 -68 -50 -83 -56 -14 -7 -26 -16 -26 -20 0 -15 -71 -52 -82 -41
-9 9 -3 21 59 112 208 306 433 529 648 643 57 31 75 33 75 12z"/>
<path d="M5730 8456 c-35 -156 -50 -188 -101 -212 -23 -12 -74 -29 -113 -39
-135 -32 -184 -77 -107 -98 71 -18 246 34 296 87 27 29 52 139 61 264 9 122
-8 121 -36 -2z"/>
<path d="M9620 6520 c0 -5 5 -10 11 -10 5 0 7 5 4 10 -3 6 -8 10 -11 10 -2 0
-4 -4 -4 -10z"/>
<path d="M9270 4788 c-81 -17 -255 -59 -275 -67 -11 -5 -45 -19 -75 -31 -30
-12 -64 -26 -75 -30 -58 -23 -302 -149 -385 -199 -81 -49 -405 -261 -492 -322
-15 -10 -29 -19 -32 -19 -2 0 -38 -20 -79 -44 -41 -24 -119 -63 -173 -86 -54
-24 -113 -49 -131 -57 -59 -25 -260 -72 -360 -83 -155 -17 -308 8 -465 75 -26
11 -22 -17 5 -36 40 -30 171 -78 237 -89 166 -26 339 -4 575 75 192 63 402
168 560 278 54 37 191 127 232 152 18 11 81 50 140 86 356 219 699 336 1037
355 122 7 141 18 75 41 -40 14 -254 15 -319 1z"/>
<path d="M9410 4626 c-226 -48 -518 -157 -770 -288 -74 -39 -142 -76 -150 -83
-8 -7 -46 -29 -85 -50 -38 -21 -86 -48 -105 -60 -76 -47 -337 -183 -400 -208
-14 -5 -34 -13 -45 -18 -11 -5 -69 -25 -130 -44 -111 -36 -155 -57 -155 -75 0
-13 62 -13 136 1 62 11 182 47 199 59 6 4 37 17 70 30 53 21 123 58 235 123
19 11 58 34 85 49 28 16 73 43 100 60 82 51 296 171 355 200 116 57 208 98
220 98 6 0 24 6 38 14 40 21 178 73 273 102 167 51 255 66 416 68 84 1 155 4
158 7 3 4 -2 12 -10 19 -11 9 -62 14 -168 17 -131 2 -168 -1 -267 -21z"/>
<path d="M5463 10130 c-21 -13 -35 -31 -42 -57 -14 -50 -14 -64 4 -106 24 -57
41 -62 210 -55 l80 3 3 49 c2 27 0 56 -4 65 -4 9 -6 28 -5 42 2 19 -7 34 -29
53 -28 23 -40 26 -108 26 -59 0 -85 -5 -109 -20z m161 -68 c12 -7 -15 -22 -41
-22 -27 0 -32 -34 -7 -48 23 -13 0 -26 -31 -18 -51 13 -53 90 -3 99 23 4 66
-2 82 -11z"/>
<path d="M4611 9156 c-10 -24 -22 -54 -26 -65 -9 -29 -31 -26 -52 7 -47 72
-62 85 -96 78 -16 -3 -39 -6 -50 -6 -19 0 -20 -4 -14 -97 9 -141 11 -145 61
-141 39 3 41 4 42 38 0 19 1 40 2 45 2 11 52 -43 52 -56 0 -14 47 -21 67 -11
10 6 25 27 33 46 16 42 33 42 40 0 5 -26 9 -29 45 -29 39 0 40 1 40 35 0 19
-4 72 -8 118 l-8 82 -54 0 -54 0 -20 -44z"/>
<path d="M4080 8880 c0 -38 2 -40 33 -42 17 0 41 0 52 1 33 3 75 -20 81 -45 3
-13 2 -36 -3 -51 -9 -27 -13 -28 -84 -33 -73 -5 -74 -5 -80 -35 -9 -51 -4 -55
82 -55 130 0 161 28 161 144 1 71 -9 103 -40 139 -12 14 -32 17 -109 17 l-93
0 0 -40z"/>
<path d="M4198 8539 c-10 -5 -18 -17 -18 -26 0 -14 -4 -13 -20 5 -24 25 -42
21 -66 -16 -25 -38 -26 -175 -2 -218 20 -37 64 -50 89 -28 18 16 49 19 49 3 0
-6 14 -9 32 -7 45 4 58 34 58 140 0 87 -11 136 -33 150 -17 11 -69 9 -89 -3z
m52 -154 c0 -13 -4 -27 -10 -30 -6 -4 -10 8 -10 30 0 22 4 34 10 30 6 -3 10
-17 10 -30z m-93 -7 c-3 -7 -5 -2 -5 12 0 14 2 19 5 13 2 -7 2 -19 0 -25z m83
-82 c0 -3 -4 -8 -10 -11 -5 -3 -10 -1 -10 4 0 6 5 11 10 11 6 0 10 -2 10 -4z"/>
<path d="M4103 7398 c-21 -18 -40 -34 -42 -35 -3 -2 1 -9 7 -15 7 -7 12 -24
12 -39 0 -15 6 -31 13 -37 13 -11 224 -9 235 3 10 9 -70 73 -99 79 -21 4 -27
10 -23 21 8 20 -23 55 -47 55 -10 0 -35 -14 -56 -32z"/>
<path d="M4135 7181 c-47 -6 -50 -8 -53 -38 -4 -40 19 -54 87 -51 68 3 86 -14
76 -72 -8 -48 -28 -59 -91 -52 -59 6 -92 -34 -65 -77 11 -17 102 -33 116 -20
5 5 18 9 28 9 33 0 76 33 88 67 12 38 10 148 -3 179 -20 44 -91 66 -183 55z"/>
<path d="M4199 6589 c-20 -20 -22 -20 -40 -3 -16 14 -21 15 -34 4 -31 -25 -45
-69 -45 -135 0 -132 60 -188 134 -126 11 9 21 12 23 6 11 -31 20 -36 44 -25
35 16 49 55 49 141 0 85 -13 135 -40 149 -30 16 -69 11 -91 -11z m58 -140 c-5
-40 -13 -57 -21 -48 -9 8 7 89 17 89 6 0 7 -17 4 -41z"/>
<path d="M4090 6186 c0 -49 10 -58 62 -50 40 6 72 -11 48 -25 -76 -48 -130
-96 -124 -110 4 -9 10 -32 13 -51 l6 -35 120 0 120 0 0 40 0 40 -57 3 c-32 2
-58 6 -58 9 0 3 17 21 38 39 79 72 79 72 77 127 l-2 52 -121 3 -122 3 0 -45z"/>
<path d="M4107 5828 c-19 -15 -21 -37 -19 -156 2 -101 5 -103 147 -93 l100 6
0 114 c0 116 -7 141 -40 141 -22 0 -28 -19 -29 -92 -1 -89 -21 -95 -22 -7 -2
78 -7 89 -40 89 -20 0 -24 -5 -25 -32 -1 -28 -2 -29 -6 -8 -4 23 -27 50 -43
50 -3 0 -14 -6 -23 -12z m73 -134 c0 -14 -4 -23 -10 -19 -5 3 -10 15 -10 26 0
10 5 19 10 19 6 0 10 -12 10 -26z"/>
<path d="M4290 5490 c-69 -12 -119 -27 -135 -40 -24 -20 -29 -112 -10 -171 24
-72 53 -99 105 -99 50 0 105 22 118 47 29 54 21 153 -15 191 -10 10 -10 17 -1
31 11 19 5 52 -9 50 -4 -1 -28 -5 -53 -9z m-40 -153 c0 -5 13 -7 29 -4 36 8
50 -17 25 -44 -23 -26 -59 -24 -78 3 -17 23 -21 69 -9 82 8 7 33 -21 33 -37z"/>
<path d="M4351 4901 c-10 -10 -20 -24 -23 -31 -3 -10 -8 -10 -26 1 -19 12 -23
11 -36 -6 -33 -43 -5 -190 46 -244 32 -35 96 -23 110 21 4 10 10 10 31 -1 24
-13 29 -12 47 4 13 12 20 31 20 54 0 56 -35 169 -61 197 -28 30 -81 32 -108 5z
m79 -129 l-1 -37 -14 34 c-15 33 -12 56 6 46 5 -4 9 -23 9 -43z m-80 -13 c9
-22 10 -33 2 -41 -8 -8 -14 -4 -22 16 -21 57 -3 81 20 25z"/>
<path d="M4395 4526 c-66 -23 -78 -44 -47 -84 l17 -22 57 20 c32 11 64 20 71
20 19 0 44 -30 52 -61 9 -35 -17 -59 -90 -84 -31 -10 -58 -22 -60 -26 -8 -12
26 -69 41 -69 8 0 44 9 79 21 114 37 142 104 90 215 -46 96 -93 112 -210 70z"/>
<path d="M4640 4200 c-8 -5 -44 -23 -80 -40 -36 -17 -69 -35 -73 -40 -5 -4 0
-28 11 -53 l20 -45 71 -7 c49 -5 71 -11 71 -20 0 -8 -16 -34 -35 -59 -19 -26
-35 -53 -35 -61 0 -14 39 -95 46 -95 11 0 200 96 206 104 3 5 0 23 -9 39 -14
27 -17 29 -59 22 l-45 -6 15 30 c9 16 20 33 26 36 31 19 -14 91 -50 80 -11 -3
-29 -1 -41 6 -22 11 -22 12 13 30 30 15 35 23 31 41 -11 46 -45 61 -83 38z"/>
<path d="M4800 3757 c-39 -15 -120 -64 -120 -73 0 -18 44 -64 61 -64 10 0 19
3 19 8 0 9 56 38 87 45 23 5 54 -22 67 -56 7 -21 -39 -71 -91 -98 -30 -16 -30
-18 -19 -53 13 -43 21 -44 86 -11 62 31 97 64 111 103 9 25 6 39 -19 93 -16
35 -40 74 -54 87 -31 28 -82 36 -128 19z"/>
<path d="M5013 3445 c-24 -17 -34 -56 -21 -79 12 -21 -5 -21 -22 -1 -29 35
-56 -2 -44 -62 9 -44 75 -133 116 -157 35 -19 40 -20 64 -6 15 8 32 29 37 45
13 40 13 40 33 21 23 -23 44 -4 44 41 0 73 -103 213 -157 213 -16 0 -38 -7
-50 -15z m127 -167 c0 -31 -18 -19 -39 25 -12 24 -21 48 -21 53 1 17 59 -61
60 -78z m-102 -7 c12 -17 18 -33 12 -36 -5 -3 -16 8 -25 24 -25 50 -19 55 13
12z"/>
<path d="M10143 10151 c-86 -11 -118 -65 -72 -120 17 -21 31 -25 100 -29 53
-3 78 -8 76 -16 -4 -11 -30 -12 -134 0 -58 6 -63 5 -63 -13 0 -23 25 -48 57
-57 39 -12 179 -9 204 5 58 31 65 81 17 121 -23 19 -28 28 -17 28 30 0 39 23
19 48 -13 16 -36 26 -77 32 -32 6 -58 9 -58 9 0 -1 -23 -5 -52 -8z m95 -78 c4
-14 -43 -18 -73 -7 -13 6 -14 9 -3 15 18 13 71 7 76 -8z"/>
<path d="M8835 10141 c-3 -6 -3 -47 0 -93 4 -73 8 -86 30 -105 37 -33 85 -42
162 -33 57 7 71 13 91 37 20 25 22 37 20 113 l-3 85 -40 0 -40 0 -1 -62 c-2
-75 -14 -93 -63 -93 -62 0 -69 11 -70 108 l-1 52 -39 0 c-22 0 -42 -4 -46 -9z"/>
<path d="M9219 10148 c-4 -11 -8 -197 -4 -214 4 -16 16 -24 55 -31 l50 -10 -6
56 -6 56 25 -35 c61 -84 89 -91 120 -27 23 46 45 48 49 5 3 -30 6 -33 40 -36
34 -3 38 0 53 33 8 21 12 42 9 47 -4 6 -7 42 -8 82 l-2 71 -59 0 c-62 0 -72
-8 -105 -82 -15 -35 -36 -27 -66 25 -15 26 -32 50 -38 54 -10 7 -104 12 -107
6z"/>
<path d="M9679 10143 c-1 -4 -1 -46 0 -93 2 -108 16 -126 109 -138 82 -11 148
3 171 37 19 30 32 170 18 189 -6 8 -25 12 -46 10 l-36 -3 -2 -65 c-3 -78 -25
-105 -77 -94 -45 9 -49 17 -50 91 l-1 68 -42 3 c-24 2 -44 0 -44 -5z"/>
<path d="M10385 9570 c-11 -4 -30 -10 -42 -15 -27 -9 -53 -57 -53 -97 0 -38
21 -85 54 -125 18 -21 25 -39 22 -51 -4 -11 0 -24 7 -31 11 -8 27 -4 73 19 32
16 60 30 62 30 11 0 -4 -30 -33 -66 -19 -23 -35 -47 -35 -52 0 -10 72 -74 143
-127 34 -25 40 -27 62 -15 14 7 25 17 25 22 0 10 -37 46 -85 84 -16 12 -26 26
-22 30 7 8 87 -44 87 -56 0 -15 45 -19 59 -5 15 15 4 28 -79 99 -21 19 -29 31
-21 34 7 2 23 -5 35 -17 12 -12 27 -21 32 -21 11 0 74 -67 74 -80 0 -5 -4 -11
-9 -14 -4 -3 -14 -33 -21 -67 -15 -68 -9 -79 40 -79 31 0 50 17 50 45 0 12 6
30 14 40 13 18 16 14 46 -53 30 -66 36 -73 72 -83 56 -15 69 -9 85 36 19 55
41 172 34 183 -9 14 -69 23 -76 12 -4 -6 -9 -22 -11 -37 -7 -36 -23 -65 -34
-58 -5 3 -18 34 -30 69 -18 55 -26 66 -52 75 -17 6 -40 11 -51 11 -21 0 -97
53 -158 110 -19 17 -44 36 -56 40 -16 7 -25 24 -34 65 -24 110 -100 173 -174
145z m94 -135 c17 -36 0 -57 -27 -32 -22 20 -43 22 -60 5 -20 -20 -38 6 -26
39 18 53 84 46 113 -12z"/>
<path d="M11227 8991 c-22 -26 -25 -40 -26 -118 -1 -71 2 -94 18 -120 24 -39
71 -52 106 -29 15 10 35 14 54 10 46 -10 65 29 68 137 2 82 1 90 -23 118 -32
39 -67 40 -100 4 -13 -14 -27 -23 -31 -20 -3 4 -3 7 1 7 4 0 2 9 -4 20 -15 28
-34 25 -63 -9z m63 -116 c0 -25 -4 -45 -10 -45 -11 0 -14 73 -3 83 11 12 13 8
13 -38z m90 -14 c0 -11 -4 -23 -10 -26 -6 -4 -10 5 -10 19 0 14 5 26 10 26 6
0 10 -9 10 -19z"/>
<path d="M11265 8439 c-48 -15 -66 -49 -70 -137 -3 -66 -1 -82 18 -110 27 -40
71 -54 157 -50 l65 3 3 34 c4 42 -8 51 -73 51 -66 0 -95 20 -95 65 0 19 6 37
13 42 6 4 46 13 87 18 74 10 75 10 75 40 0 17 -4 36 -9 43 -10 14 -125 15
-171 1z"/>
<path d="M11203 8048 c-10 -17 -10 -39 0 -60 6 -14 20 -18 62 -18 30 0 55 -4
55 -8 0 -10 -76 -66 -102 -75 -17 -6 -20 -16 -23 -105 -1 -42 13 -46 142 -37
l104 7 -3 36 c-3 37 -4 37 -56 43 -50 7 -71 14 -61 22 2 2 29 22 61 45 54 40
56 43 60 92 1 28 -1 55 -6 61 -15 14 -223 12 -233 -3z"/>
<path d="M11190 7651 c-14 -28 -5 -57 26 -77 35 -23 34 -94 -1 -122 -18 -14
-25 -29 -25 -55 0 -56 16 -57 130 -6 125 57 115 47 115 119 l0 65 -40 20 c-67
33 -139 63 -167 70 -21 5 -29 2 -38 -14z m161 -136 c0 -5 -12 -11 -26 -13 -18
-2 -25 1 -25 13 0 12 7 15 25 13 14 -2 26 -7 26 -13z"/>
<path d="M11228 7058 c-35 -27 -48 -140 -27 -225 10 -36 18 -48 42 -58 33 -14
52 -11 80 13 13 12 20 13 29 4 20 -20 46 -14 66 16 35 50 27 230 -11 254 -22
14 -67 8 -87 -12 -11 -11 -24 -20 -29 -20 -5 0 -11 9 -14 20 -6 23 -26 26 -49
8z m53 -151 c-8 -8 -11 -1 -11 24 0 46 14 60 18 19 2 -18 -1 -37 -7 -43z m78
-21 c-9 -8 -10 -5 -5 14 3 14 6 32 7 40 1 8 4 2 6 -14 3 -16 -1 -34 -8 -40z"/>
<path d="M11264 6690 c-46 -18 -64 -57 -64 -138 0 -120 23 -144 148 -159 69
-8 89 1 94 43 2 19 0 38 -5 41 -5 3 -38 6 -73 8 -76 3 -94 15 -94 65 0 46 25
60 109 60 l59 0 4 35 c2 19 -1 40 -6 45 -12 12 -142 12 -172 0z"/>
<path d="M11199 6303 c-6 -66 -5 -68 36 -71 71 -5 74 -12 15 -41 -48 -23 -55
-30 -55 -56 0 -23 9 -35 43 -58 23 -16 40 -33 37 -38 -8 -12 -85 -12 -85 1 0
6 -5 10 -11 10 -6 0 -4 -9 4 -21 8 -11 13 -28 10 -38 -2 -10 3 -26 12 -35 14
-14 35 -16 124 -14 l106 3 3 49 c4 56 -7 72 -73 105 -26 13 -44 28 -43 33 2 6
24 21 48 34 24 13 49 29 56 36 16 18 24 94 11 107 -7 7 -56 11 -124 11 -100 0
-113 -2 -114 -17z"/>
<path d="M11250 5847 c-62 -22 -88 -83 -82 -195 3 -68 62 -106 169 -111 55 -2
65 5 70 51 3 30 7 28 -92 45 -63 10 -86 42 -64 89 13 27 18 29 84 32 78 3 95
13 95 52 0 26 -3 29 -63 39 -75 13 -73 13 -117 -2z"/>
<path d="M11151 5454 c-25 -32 -55 -164 -47 -208 12 -65 68 -90 114 -51 36 30
45 32 37 6 -6 -21 15 -34 40 -24 36 13 77 144 67 214 -6 46 -29 69 -68 69 -24
0 -38 -7 -53 -27 l-20 -28 -1 38 c0 32 -3 37 -24 37 -14 0 -33 -11 -45 -26z
m59 -107 c0 -18 -7 -42 -16 -53 -14 -18 -15 -16 -9 25 9 67 25 85 25 28z"/>
<path d="M11059 4893 c-48 -19 -79 -77 -79 -146 0 -36 -5 -59 -15 -67 -19 -16
-19 -34 -1 -49 7 -6 53 -16 100 -23 82 -10 88 -10 105 9 55 58 77 171 46 229
-19 35 -30 43 -86 54 -23 4 -49 2 -70 -7z m84 -105 c7 -11 8 -29 1 -54 -12
-49 -32 -55 -36 -12 -3 29 -6 33 -30 31 -31 -2 -39 22 -16 45 17 17 69 11 81
-10z"/>
<path d="M10904 4523 c-4 -16 -15 -46 -24 -68 -45 -102 -50 -122 -35 -135 8
-7 27 -12 42 -12 15 0 34 -9 43 -21 26 -31 52 -9 74 62 11 34 23 61 28 61 14
0 9 -29 -13 -80 -26 -59 -20 -83 18 -78 25 3 32 13 65 98 21 52 37 104 35 115
-1 15 -23 27 -87 52 -109 41 -137 42 -146 6z m49 -138 c-8 -25 -19 -48 -25
-51 -16 -10 -23 6 -10 26 7 11 12 28 12 38 0 10 5 23 12 30 21 21 27 2 11 -43z"/>
<path d="M10786 4208 c-9 -17 -16 -33 -16 -34 0 -2 23 -15 50 -29 28 -14 50
-29 50 -34 0 -5 -26 -15 -57 -21 -89 -18 -92 -19 -107 -54 -31 -74 -32 -70 46
-108 118 -57 137 -63 152 -47 8 8 16 26 20 42 6 23 3 29 -21 37 -88 32 -92 51
-13 63 59 8 98 29 106 55 3 9 10 25 15 34 5 10 9 22 9 28 0 12 -175 100 -200
100 -11 0 -25 -13 -34 -32z"/>
<path d="M10617 3838 c-64 -69 -102 -177 -77 -223 17 -33 63 -42 98 -20 15 10
21 12 15 4 -38 -40 12 -66 67 -35 29 16 46 37 74 93 20 40 36 85 36 98 0 51
-61 81 -111 55 -17 -10 -19 -8 -17 22 3 29 0 33 -25 36 -22 3 -36 -5 -60 -30z
m41 -108 c-21 -37 -48 -54 -48 -30 0 18 43 70 57 70 10 0 7 -11 -9 -40z m68
-44 c-18 -38 -36 -55 -36 -34 0 18 40 82 47 74 3 -3 -2 -21 -11 -40z"/>
<path d="M10349 3352 c-64 -28 -136 -139 -124 -191 8 -34 29 -58 89 -104 56
-42 66 -44 89 -19 25 27 21 55 -10 74 -42 25 -83 67 -83 84 0 9 13 29 29 45
33 33 42 32 109 -13 52 -34 59 -34 83 -5 27 32 24 44 -22 74 -23 16 -53 36
-68 45 -27 18 -64 22 -92 10z"/>
<path d="M8250 1621 c8 -5 40 -11 70 -14 30 -3 46 -3 35 0 -11 3 -24 9 -29 14
-6 5 -28 9 -50 9 -28 -1 -36 -3 -26 -9z"/>
<path d="M8426 1615 c-18 -14 -15 -15 38 -15 42 0 57 3 54 13 -6 18 -70 19
-92 2z"/>
</g>
</svg>
